<?xml version="1.0" encoding="UTF-8"?>
<!DOCTYPE svg PUBLIC "-//W3C//DTD SVG 1.1//EN" "http://www.w3.org/Graphics/SVG/1.1/DTD/svg11.dtd">
<svg version="1.1" xmlns="http://www.w3.org/2000/svg" xmlns:xlink="http://www.w3.org/1999/xlink" x="0" y="0" width="758" height="836" viewBox="0, 0, 758, 836">
  <g id="Layer_1">
    <path d="M461.9,681.62 C461.9,681.62 461.588,692.136 462.296,697.148 C462.296,697.148 461.076,699.364 462.776,707.812 C464.472,716.256 472.724,742.18 498.12,741.156 C511.084,737.036 514.684,726.308 511.06,715.068 C507.432,703.828 504.08,699.952 504.08,699.952 L507.2,678.568 C502.544,681.776 467.552,681.848 461.9,681.62" fill="#1A1919"/>
    <path d="M461.9,681.62 C461.9,681.62 461.588,692.136 462.296,697.148 C462.296,697.148 461.076,699.364 462.776,707.812 C464.472,716.256 472.724,742.18 498.12,741.156 C511.084,737.036 514.684,726.308 511.06,715.068 C507.432,703.828 504.08,699.952 504.08,699.952 L507.2,678.568 C502.544,681.776 467.552,681.848 461.9,681.62 z M504.08,699.952 C501.424,701.092 501.2,706.752 501.552,709.252" fill-opacity="0" stroke="#1A1919" stroke-width="6.4" stroke-linecap="round" stroke-linejoin="round"/>
    <path d="M434.224,606.572 C433.068,612.868 440.524,638.644 443.504,648.952 C442.06,656.82 460.036,682.908 467.26,683.42 C471.692,685.86 497.304,688.132 508.34,681.216 C512.356,677.076 522.332,662.64 521.356,650.26 C521.644,648.688 525.636,622.58 525.8,612.848 L434.224,606.572" fill="#CDB161"/>
    <path d="M434.224,606.572 C433.068,612.868 440.524,638.644 443.504,648.952 C442.06,656.82 460.036,682.908 467.26,683.42 C471.692,685.86 497.304,688.132 508.34,681.216 C512.356,677.076 522.332,662.64 521.356,650.26 C521.644,648.688 525.636,622.58 525.8,612.848 L434.224,606.572 z M499.332,677.12 L496.456,683.912" fill-opacity="0" stroke="#1A1919" stroke-width="6.4" stroke-linecap="round" stroke-linejoin="round"/>
    <path d="M624.584,497.468 C614.98,463.336 529.648,446.268 516.848,444.132 L318.448,433.468 C303.34,439.688 228.848,452.668 178.708,458.064 C166.464,459.38 152.328,451.16 140.58,448.132 C140.58,464.132 136.316,501.464 105.38,515.332 C122.064,518.46 135.088,523.488 160.58,523.6 C170.18,528.88 208.58,535.872 233.112,523.068 C261.916,514.536 319.516,483.6 328.048,477.2 C326.98,481.468 291.248,587.068 290.18,597.736 C316.048,620.932 364.316,549.736 422.98,624.404 C427.916,630.684 429.84,625.104 436.848,626.536 C472.52,633.812 515.78,621.2 536.048,615.868 C547.584,612.832 548.848,603.068 548.848,603.068 C545.648,572.136 528.584,496.404 528.584,491.068 C536.048,492.136 559.516,509.2 559.516,509.2" fill="#CDB161"/>
    <path d="M624.584,497.468 C614.98,463.336 529.648,446.268 516.848,444.132 L318.448,433.468 C303.34,439.688 228.848,452.668 178.708,458.064 C166.464,459.38 152.328,451.16 140.58,448.132 C140.58,464.132 136.316,501.464 105.38,515.332 C122.064,518.46 135.088,523.488 160.58,523.6 C170.18,528.88 208.58,535.872 233.112,523.068 C261.916,514.536 319.516,483.6 328.048,477.2 C326.98,481.468 291.248,587.068 290.18,597.736 C316.048,620.932 364.316,549.736 422.98,624.404 C427.916,630.684 429.84,625.104 436.848,626.536 C472.52,633.812 515.78,621.2 536.048,615.868 C547.584,612.832 548.848,603.068 548.848,603.068 C545.648,572.136 528.584,496.404 528.584,491.068 C536.048,492.136 559.516,509.2 559.516,509.2 M177.648,472.932 C178.712,488.932 182.98,510.8 160.58,523.6 M175.516,511.068 C182.98,518.536 187.248,516.404 195.78,516.404" fill-opacity="0" stroke="#1A1919" stroke-width="6.4" stroke-linecap="round" stroke-linejoin="round"/>
    <path d="M456.584,589.752 C440.02,589.752 419.292,589.2 402.424,587.012 C373.744,583.292 311.108,567.584 293.38,560.932 L296.58,545.736 C313.788,552.188 376.144,570.7 404.072,574.32 C436.128,578.48 497.792,575.416 499.78,575.332 L500.336,588.12 C499.34,588.164 472.564,589.752 456.584,589.752" fill="#E7D5A5"/>
    <path d="M456.584,589.752 C440.02,589.752 419.292,589.2 402.424,587.012 C373.744,583.292 311.108,567.584 293.38,560.932 L296.58,545.736 C313.788,552.188 376.144,570.7 404.072,574.32 C436.128,578.48 497.792,575.416 499.78,575.332 L500.336,588.12 C499.34,588.164 472.564,589.752 456.584,589.752 z" fill-opacity="0" stroke="#1A1919" stroke-width="6.4" stroke-linecap="round" stroke-linejoin="round"/>
    <path d="M330.712,517.2 C330.712,520.404 323.248,540.668 327.512,547.068 C331.78,553.468 374.448,562.004 380.848,559.868 C387.248,557.736 390.448,544.932 390.448,527.868 L330.712,517.2" fill="#CDB161"/>
    <path d="M330.712,517.2 C330.712,520.404 323.248,540.668 327.512,547.068 C331.78,553.468 374.448,562.004 380.848,559.868 C387.248,557.736 390.448,544.932 390.448,527.868 L330.712,517.2 z" fill-opacity="0" stroke="#1A1919" stroke-width="6.4" stroke-linecap="round" stroke-linejoin="round"/>
    <path d="M331.78,501.2 C331.78,501.2 324.312,515.068 330.712,517.2 C342.448,522.536 387.248,532.136 394.716,531.068 L397.916,511.868 C391.512,510.8 331.78,496.932 331.78,496.932 L331.78,501.2" fill="#CDB161"/>
    <path d="M331.78,501.2 C331.78,501.2 324.312,515.068 330.712,517.2 C342.448,522.536 387.248,532.136 394.716,531.068 L397.916,511.868 C391.512,510.8 331.78,496.932 331.78,496.932 L331.78,501.2 z" fill-opacity="0" stroke="#1A1919" stroke-width="6.4" stroke-linecap="round" stroke-linejoin="round"/>
    <path d="M489.38,584.132 C488.316,587.332 506.72,637.2 515.252,651.068 C517.388,654.268 532.644,656.744 541.916,654.268 C557.916,650 627.252,618.004 636.852,609.468 C637.916,605.204 633.652,587.068 625.12,571.068 C622.988,566.8 609.116,539.068 598.452,538 C592.052,538 490.444,576.668 489.38,584.132" fill="#7D563A"/>
    <path d="M489.38,584.132 C488.316,587.332 506.72,637.2 515.252,651.068 C517.388,654.268 532.644,656.744 541.916,654.268 C557.916,650 627.252,618.004 636.852,609.468 C637.916,605.204 633.652,587.068 625.12,571.068 C622.988,566.8 609.116,539.068 598.452,538 C592.052,538 490.444,576.668 489.38,584.132 z" fill-opacity="0" stroke="#1A1919" stroke-width="6.4" stroke-linecap="round" stroke-linejoin="round"/>
    <path d="M498.188,575.332 C498.188,575.332 508.852,573.2 518.452,594.536 C528.052,615.868 537.652,638.268 537.652,638.268 C542.988,640.404 628.316,603.068 636.852,594.536 C627.252,566.8 612.32,526.268 590.988,535.868 C569.652,545.468 498.188,575.332 498.188,575.332" fill="#7D563A"/>
    <path d="M498.188,575.332 C498.188,575.332 508.852,573.2 518.452,594.536 C528.052,615.868 537.652,638.268 537.652,638.268 C542.988,640.404 628.316,603.068 636.852,594.536 C627.252,566.8 612.32,526.268 590.988,535.868 C569.652,545.468 498.188,575.332 498.188,575.332 z" fill-opacity="0" stroke="#1A1919" stroke-width="6.4" stroke-linecap="round" stroke-linejoin="round"/>
    <path d="M447.78,527.332 C447.248,534.264 446.716,555.596 450.98,559.868 C455.248,564.132 468.048,563.6 481.38,562.536 C494.716,561.464 506.98,559.332 509.112,556.132 C511.248,552.932 510.18,535.332 506.98,522.536" fill="#CDB161"/>
    <path d="M447.78,527.332 C447.248,534.264 446.716,555.596 450.98,559.868 C455.248,564.132 468.048,563.6 481.38,562.536 C494.716,561.464 506.98,559.332 509.112,556.132 C511.248,552.932 510.18,535.332 506.98,522.536" fill-opacity="0" stroke="#1A1919" stroke-width="6.4" stroke-linecap="round" stroke-linejoin="round"/>
    <path d="M450.98,533.736 C445.6,532.92 443.208,516.844 444.272,513.644 C458.348,512.444 489.38,509.2 507.512,506 C508.584,512.404 509.648,518.8 509.648,518.8 C510.76,525.324 506.664,527.488 502.08,528.616 C495.648,530.204 460.748,535.208 450.98,533.736" fill="#CDB161"/>
    <path d="M450.98,533.736 C445.6,532.92 443.208,516.844 444.272,513.644 C458.348,512.444 489.38,509.2 507.512,506 C508.584,512.404 509.648,518.8 509.648,518.8 C510.76,525.324 506.664,527.488 502.08,528.616 C495.648,530.204 460.748,535.208 450.98,533.736 z" fill-opacity="0" stroke="#1A1919" stroke-width="6.4" stroke-linecap="round" stroke-linejoin="round"/>
    <path d="M238.452,684.132 C238.452,684.132 210.72,752.404 212.852,756.668 C214.984,760.932 230.984,779.068 230.984,779.068 L240.584,792.932 C240.584,792.932 237.388,798.268 241.652,801.468 C245.92,804.668 304.584,830.268 304.584,830.268 L335.516,827.068 C335.516,827.068 360.052,831.332 364.32,832.4 C368.584,833.468 398.452,830.268 403.784,830.268 C409.116,830.268 428.316,824.932 428.316,824.932 C428.316,824.932 441.12,812.132 443.252,808.932 C445.388,805.736 437.916,722.536 437.916,722.536 L433.652,711.868 L238.452,684.132" fill="#A69D90"/>
    <path d="M238.452,684.132 C238.452,684.132 210.72,752.404 212.852,756.668 C214.984,760.932 230.984,779.068 230.984,779.068 L240.584,792.932 C240.584,792.932 237.388,798.268 241.652,801.468 C245.92,804.668 304.584,830.268 304.584,830.268 L335.516,827.068 C335.516,827.068 360.052,831.332 364.32,832.4 C368.584,833.468 398.452,830.268 403.784,830.268 C409.116,830.268 428.316,824.932 428.316,824.932 C428.316,824.932 441.12,812.132 443.252,808.932 C445.388,805.736 437.916,722.536 437.916,722.536 L433.652,711.868 L238.452,684.132 z" fill-opacity="0" stroke="#1A1919" stroke-width="6.4" stroke-linecap="round" stroke-linejoin="round"/>
    <path d="M278.984,662.8 C273.652,662.8 241.652,679.868 240.584,683.068 C239.516,686.264 239.516,693.736 239.516,693.736 L258.72,724.668 L267.252,733.2 C297.14,757.748 288.432,758.036 296.052,764.132 C301.384,768.404 324.852,776.932 328.052,776.932 C331.252,776.932 352.584,763.068 357.916,763.068 C364.32,764.132 366.452,762 371.784,762 C377.116,762 398.452,760.932 403.784,757.736 C409.116,754.536 425.116,727.868 425.116,727.868 L433.652,711.868 L381.384,679.868 L278.984,662.8" fill="#A69D90"/>
    <path d="M278.984,662.8 C273.652,662.8 241.652,679.868 240.584,683.068 C239.516,686.264 239.516,693.736 239.516,693.736 L258.72,724.668 L267.252,733.2 C297.14,757.748 288.432,758.036 296.052,764.132 C301.384,768.404 324.852,776.932 328.052,776.932 C331.252,776.932 352.584,763.068 357.916,763.068 C364.32,764.132 366.452,762 371.784,762 C377.116,762 398.452,760.932 403.784,757.736 C409.116,754.536 425.116,727.868 425.116,727.868 L433.652,711.868 L381.384,679.868 L278.984,662.8 z M265.116,733.2 C265.116,733.2 240.584,788.668 240.584,792.932 M257.652,727.868 L229.916,773.736 M325.916,779.068 L312.052,803.596 L304.584,830.268 M316.32,799.332 C317.384,802.536 322.72,827.068 322.72,827.068 M360.052,764.132 C355.784,768.4 341.92,786.536 340.852,795.068 M381.384,772.668 C384.584,778 424.052,818.536 424.052,818.536 C424.052,804.668 406.984,767.332 402.72,760.932" fill-opacity="0" stroke="#1A1919" stroke-width="6.4" stroke-linecap="round" stroke-linejoin="round"/>
    <path d="M373.116,463.332 L357.116,469.736 C386.98,516.404 481.38,582.536 490.98,584.132 L511.78,582.536 C473.38,558.536 398.716,495.068 373.116,463.332" fill="#7D563A"/>
    <path d="M373.116,463.332 L357.116,469.736 C386.98,516.404 481.38,582.536 490.98,584.132 L511.78,582.536 C473.38,558.536 398.716,495.068 373.116,463.332 z" fill-opacity="0" stroke="#1A1919" stroke-width="6.4" stroke-linecap="round" stroke-linejoin="round"/>
    <path d="M406.98,475.068 C408.048,478.264 415.512,497.464 419.78,495.332 C424.048,493.2 440.048,471.868 440.048,471.868 L406.98,475.068" fill="#F4BB9D"/>
    <path d="M406.98,475.068 C408.048,478.264 415.512,497.464 419.78,495.332 C424.048,493.2 440.048,471.868 440.048,471.868 L406.98,475.068 z" fill-opacity="0" stroke="#1A1919" stroke-width="6.4" stroke-linecap="round" stroke-linejoin="round"/>
    <path d="M251.248,145.464 C261.916,118.8 342.98,2.536 385.648,3.6 C428.316,4.668 451.78,21.736 460.316,28.132 C483.78,13.2 525.052,4.136 540.316,12.132 C562.716,23.868 621.384,119.868 636.316,188.132 C630.98,193.464 251.248,145.464 251.248,145.464" fill="#C1936C"/>
    <path d="M251.248,145.464 C261.916,118.8 342.98,2.536 385.648,3.6 C428.316,4.668 451.78,21.736 460.316,28.132 C483.78,13.2 525.052,4.136 540.316,12.132 C562.716,23.868 621.384,119.868 636.316,188.132 C630.98,193.464 251.248,145.464 251.248,145.464 z" fill-opacity="0" stroke="#1A1919" stroke-width="6.4" stroke-linecap="round" stroke-linejoin="round"/>
    <path d="M622.872,145.052 C628.66,159.92 633.348,174.576 636.316,188.132 C630.98,193.464 251.248,145.464 251.248,145.464 C254.252,137.956 262.84,123.34 274.58,106.244 C288.58,98.536 413.384,100.668 468.848,109.2 C524.312,117.736 609.424,137.172 622.872,145.052" fill="#7D563A"/>
    <path d="M622.872,145.052 C628.66,159.92 633.348,174.576 636.316,188.132 C630.98,193.464 251.248,145.464 251.248,145.464 C254.252,137.956 262.84,123.34 274.58,106.244 C288.58,98.536 413.384,100.668 468.848,109.2 C524.312,117.736 609.424,137.172 622.872,145.052 z" fill-opacity="0" stroke="#1A1919" stroke-width="6.4" stroke-linecap="round" stroke-linejoin="round"/>
    <path d="M347.248,452.132 C362.18,466.536 380.316,479.336 417.648,480.404 C454.98,481.464 478.448,462.268 491.248,448.404 L346.18,454.8" fill="#D8232A"/>
    <path d="M347.248,452.132 C362.18,466.536 380.316,479.336 417.648,480.404 C454.98,481.464 478.448,462.268 491.248,448.404 L346.18,454.8" fill-opacity="0" stroke="#1A1919" stroke-width="6.4" stroke-linecap="round" stroke-linejoin="round"/>
    <path d="M754.716,290.536 C750.448,302.268 709.916,342.8 614.98,343.868 L603.248,213.736 C628.848,219.068 746.184,255.332 754.716,290.536" fill="#8D6648"/>
    <path d="M754.716,290.536 C750.448,302.268 709.916,342.8 614.98,343.868 L603.248,213.736 C628.848,219.068 746.184,255.332 754.716,290.536 z" fill-opacity="0" stroke="#1A1919" stroke-width="6.4" stroke-linecap="round" stroke-linejoin="round"/>
    <path d="M101.916,193.468 C98.716,196.668 98.716,196.668 97.648,202 C96.58,207.332 113.648,272.404 229.916,310.8 C233.116,306.536 317.38,156.132 317.38,156.132 C312.048,149.736 187.248,150.8 120.048,179.6 C117.916,179.6 105.116,188.136 101.916,193.468" fill="#8D6648"/>
    <path d="M101.916,193.468 C98.716,196.668 98.716,196.668 97.648,202 C96.58,207.332 113.648,272.404 229.916,310.8 C233.116,306.536 317.38,156.132 317.38,156.132 C312.048,149.736 187.248,150.8 120.048,179.6 C117.916,179.6 105.116,188.136 101.916,193.468 z" fill-opacity="0" stroke="#1A1919" stroke-width="6.4" stroke-linecap="round" stroke-linejoin="round"/>
    <path d="M549.38,540.132 C539.892,542.436 525.024,552.064 527.2,564.08 C529.372,576.092 546.708,588.884 555.904,587.324 C558.724,586.708 563.32,585.928 560.016,581.2 C569.54,583.208 579.644,583.72 583.98,568.236 L590.368,555.732 C586.1,554.66 549.38,540.132 549.38,540.132" fill="#F4BB9D"/>
    <path d="M549.38,540.132 C539.892,542.436 525.024,552.064 527.2,564.08 C529.372,576.092 546.708,588.884 555.904,587.324 C558.724,586.708 563.32,585.928 560.016,581.2 C569.54,583.208 579.644,583.72 583.98,568.236 L590.368,555.732 C586.1,554.66 549.38,540.132 549.38,540.132 z M552.048,575.332 C554.568,575.548 559.916,581.336 559.916,581.336" fill-opacity="0" stroke="#1A1919" stroke-width="6.4" stroke-linecap="round" stroke-linejoin="round"/>
    <path d="M229.916,251.068 C221.38,239.332 198.98,225.464 187.248,261.736 C175.512,298 205.38,355.596 227.78,350.264 L229.916,251.068" fill="#F4BB9D"/>
    <path d="M229.916,251.068 C221.38,239.332 198.98,225.464 187.248,261.736 C175.512,298 205.38,355.596 227.78,350.264 L229.916,251.068 z M224.58,279.868 C212.844,262.8 209.648,245.736 200.048,269.2 M219.248,285.2 C214.98,287.332 206.444,286.268 206.444,291.6 C206.444,296.932 217.112,312.932 217.112,312.932" fill-opacity="0" stroke="#1A1919" stroke-width="6.4" stroke-linecap="round" stroke-linejoin="round"/>
    <path d="M516.848,444.132 C529.648,446.268 614.98,463.336 624.584,497.468 C627.78,523.332 618.18,538.536 602.98,544.932 C602.98,544.932 590.98,561.736 586.18,560.132 C577.38,557.736 547.78,546.536 544.584,540.932 C541.692,535.88 544.584,540.932 544.584,540.932 C544.584,540.932 549.38,527.332 551.78,524.132 C551.78,524.132 545.916,510.8 553.38,508.132 C553.38,508.132 536.048,492.136 528.584,491.068" fill="#CDB161"/>
    <path d="M516.848,444.132 C529.648,446.268 614.98,463.336 624.584,497.468 C627.78,523.332 618.18,538.536 602.98,544.932 C602.98,544.932 590.98,561.736 586.18,560.132 C577.38,557.736 547.78,546.536 544.584,540.932 C541.692,535.88 544.584,540.932 544.584,540.932 C544.584,540.932 549.38,527.332 551.78,524.132 C551.78,524.132 545.916,510.8 553.38,508.132 C553.38,508.132 536.048,492.136 528.584,491.068 M554.98,524.932 C559.78,527.332 587.78,541.736 602.98,544.932 M606.98,530.536 C606.98,530.536 601.916,539.332 594.716,540.132 M571.78,524.132 L571.248,529.468" fill-opacity="0" stroke="#1A1919" stroke-width="6.4" stroke-linecap="round" stroke-linejoin="round"/>
    <path d="M610.612,376.344 C615.852,391.332 650.596,374.168 666.728,332.472 C682.856,290.772 654.224,257.944 628.584,275.396 L610.612,376.344" fill="#F4BB9D"/>
    <path d="M610.612,376.344 C615.852,391.332 650.596,374.168 666.728,332.472 C682.856,290.772 654.224,257.944 628.584,275.396 L610.612,376.344 z M653.692,311.536 C653.12,293.268 644.4,280.448 633.288,307.476 C630.796,314.244 630.584,321.084 630.584,321.084 L640.52,331.652 L627.74,339.24" fill-opacity="0" stroke="#1A1919" stroke-width="6.4" stroke-linecap="round" stroke-linejoin="round"/>
    <path d="M315.248,436.668 C305.648,437.736 266.18,440.932 248.048,476.132 C274.712,484.668 329.112,466.536 346.18,454.8 L315.248,436.668" fill="#D8232A"/>
    <path d="M315.248,436.668 C305.648,437.736 266.18,440.932 248.048,476.132 C274.712,484.668 329.112,466.536 346.18,454.8 L315.248,436.668 z M320.58,446.264 C312.048,446.264 298.18,447.332 289.648,452.668" fill-opacity="0" stroke="#1A1919" stroke-width="6.4" stroke-linecap="round" stroke-linejoin="round"/>
    <path d="M346.652,454.916 C336.9,456.356 304.956,482.98 319.796,541.036 C335.244,541.824 377.464,488.236 373.876,452.436 L346.652,454.916" fill="#D8232A"/>
    <path d="M346.652,454.916 C336.9,456.356 304.956,482.98 319.796,541.036 C335.244,541.824 377.464,488.236 373.876,452.436 L346.652,454.916 z M354.372,455.308 C355.352,458.848 349.852,475.596 342.588,481.416" fill-opacity="0" stroke="#1A1919" stroke-width="7.336" stroke-linecap="round" stroke-linejoin="round"/>
    <path d="M327.068,435.988 C320.724,437.52 296.94,448.252 317.556,471.248 C333.408,477.376 352.44,463.584 355.608,454.38 C358.78,445.184 327.068,435.988 327.068,435.988" fill="#D8232A"/>
    <path d="M327.068,435.988 C320.724,437.52 296.94,448.252 317.556,471.248 C333.408,477.376 352.44,463.584 355.608,454.38 C358.78,445.184 327.068,435.988 327.068,435.988 z" fill-opacity="0" stroke="#1A1919" stroke-width="7.336" stroke-linecap="round" stroke-linejoin="round"/>
    <path d="M229.916,178.536 C221.38,190.268 198.984,242.536 249.116,257.468 C245.916,244.668 240.58,208.404 267.248,167.868 L229.916,178.536" fill="#50341D"/>
    <path d="M229.916,178.536 C221.38,190.268 198.984,242.536 249.116,257.468 C245.916,244.668 240.58,208.404 267.248,167.868 L229.916,178.536 z" fill-opacity="0" stroke="#1A1919" stroke-width="6.4" stroke-linecap="round" stroke-linejoin="round"/>
    <path d="M266.18,171.068 C252.316,192.404 218.18,253.2 219.248,314 C220.316,374.8 277.916,465.464 426.18,465.464 C556.316,465.464 622.844,390.616 630.98,321.464 C635.248,285.2 622.444,234 611.78,214.8 C608.584,212.668 348.844,159.332 344.58,152.932 C342.804,150.268 266.18,171.068 266.18,171.068" fill="#F4BB9D"/>
    <path d="M266.18,171.068 C252.316,192.404 218.18,253.2 219.248,314 C220.316,374.8 277.916,465.464 426.18,465.464 C556.316,465.464 622.844,390.616 630.98,321.464 C635.248,285.2 622.444,234 611.78,214.8 C608.584,212.668 348.844,159.332 344.58,152.932 C342.804,150.268 266.18,171.068 266.18,171.068 z" fill-opacity="0" stroke="#1A1919" stroke-width="6.4" stroke-linecap="round" stroke-linejoin="round"/>
    <path d="M317.38,156.132 C315.248,157.2 250.18,183.332 204.316,196.668 L194.716,157.2 C203.248,156.132 268.312,144.4 317.38,156.132" fill="#8D6648"/>
    <path d="M412.312,270.264 C415.512,269.2 424.048,269.2 434.716,271.332" fill-opacity="0" stroke="#1A1919" stroke-width="6.4" stroke-linecap="round" stroke-linejoin="round"/>
    <path d="M399.516,164.668 C400.584,172.132 408.052,200.932 447.516,208.404 C444.316,204.132 437.916,183.868 438.98,173.2 L399.516,164.668" fill="#50341D"/>
    <path d="M399.516,164.668 C400.584,172.132 408.052,200.932 447.516,208.404 C444.316,204.132 437.916,183.868 438.98,173.2 L399.516,164.668 z" fill-opacity="0" stroke="#1A1919" stroke-width="6.4" stroke-linecap="round" stroke-linejoin="round"/>
    <path d="M491.248,316.132 C466.716,319.332 384.584,317.2 357.916,309.736 C356.848,344.932 349.38,430.312 422.98,433.468 C497.648,436.668 491.248,337.464 491.248,316.132" fill="#1A1919"/>
    <path d="M482.816,391.148 C474.18,415.14 456.988,434.924 422.98,433.468 C393.932,432.224 377.512,418.172 368.344,399.452 C366.448,385.468 372.848,344.932 414.448,339.6 C422.98,340.668 451.78,342.8 451.78,342.8 C457.112,342.8 489.32,370.16 482.816,391.148" fill="#E05541"/>
    <path d="M600.048,219.068 C609.648,237.2 626.716,282.004 620.316,311.868 C632.048,305.468 649.112,268.136 649.112,228.668 L600.048,219.068" fill="#50341D"/>
    <path d="M600.048,219.068 C609.648,237.2 626.716,282.004 620.316,311.868 C632.048,305.468 649.112,268.136 649.112,228.668 L600.048,219.068 z" fill-opacity="0" stroke="#1A1919" stroke-width="6.4" stroke-linecap="round" stroke-linejoin="round"/>
    <path d="M279.416,694.8 L278.244,705.352 C278.244,705.352 248.936,746.384 272.38,758.1 C295.828,769.824 333.34,740.524 346.232,714.732 C347.404,710.04 352.092,692.456 352.092,687.768 C346.232,690.112 285.276,698.32 279.416,694.8" fill="#1A1919"/>
    <path d="M279.416,694.8 L278.244,705.352 C278.244,705.352 248.936,746.384 272.38,758.1 C295.828,769.824 333.34,740.524 346.232,714.732 C347.404,710.04 352.092,692.456 352.092,687.768 C346.232,690.112 285.276,698.32 279.416,694.8 z M278.244,705.352 C276.848,708.668 275.78,718.268 275.78,718.268 M350.448,662.8 C353.648,661.736 357.384,663.068 357.384,663.068 M338.716,690.536 C338.716,690.536 341.916,698 329.116,701.2 M428.312,503.868 C434.716,502.8 449.648,495.332 449.648,495.332 L447.512,485.736 L476.312,491.068 L488.048,466.536" fill-opacity="0" stroke="#1A1919" stroke-width="6.4" stroke-linecap="round" stroke-linejoin="round"/>
    <path d="M485.548,382.444 C478.028,410.14 461.028,435.096 422.98,433.468 C395.076,432.268 378.824,419.252 369.456,401.636 C368.58,388.668 366.444,376.932 371.78,372.668 C371.78,372.668 376.048,370.536 380.316,373.736 C381.38,379.068 390.98,408.932 390.98,408.932 C413.38,419.6 434.716,416.932 451.78,410.536 C458.18,404.132 468.848,394 474.18,380.132 C477.38,373.736 484.112,376.224 485.548,382.444" fill="#FFFFFE"/>
    <path d="M491.384,328.932 C491.372,323.5 491.248,319.076 491.248,316.132 C469.892,318.92 404.872,317.664 370.808,312.364 C370.716,320.404 372.844,337.464 384.584,341.736 C396.316,346 464.584,351.336 481.648,340.668 C484.848,337.468 489.388,331.068 491.384,328.932" fill="#FFFFFE"/>
    <path d="M399.004,581.952 C404.62,582.852 418.584,584.092 427.268,584.092 C427.728,584.092 428.128,584.088 428.488,584.084 C428.372,582.864 428.14,581.304 427.824,579.684 C421.108,579.152 406.492,578.032 399.244,577.74 C399.104,579.212 399.012,580.748 399.004,581.952 z M427.272,593.692 C427.268,593.692 427.268,593.692 427.268,593.692 C426.94,593.692 394.104,593.464 390.724,588.4 C387.988,584.292 390.316,572.116 390.34,571.996 C390.72,570.092 392.2,568.608 394.1,568.228 C394.496,568.148 395.292,568.068 396.428,568.068 C403.536,568.068 430.964,570.3 432.128,570.396 C434.168,570.564 435.88,572.004 436.388,573.988 C440.16,588.72 436.984,591.096 435.456,592.24 C433.976,593.352 432.064,593.692 427.272,593.692" fill="#9E754E"/>
    <path d="M399.004,581.952 C404.62,582.852 418.584,584.092 427.268,584.092 C427.728,584.092 428.128,584.088 428.488,584.084 C428.372,582.864 428.14,581.304 427.824,579.684 C421.108,579.152 406.492,578.032 399.244,577.74 C399.104,579.212 399.012,580.748 399.004,581.952 z M427.272,593.692 C427.268,593.692 427.268,593.692 427.268,593.692 C426.94,593.692 394.104,593.464 390.724,588.4 C387.988,584.292 390.316,572.116 390.34,571.996 C390.72,570.092 392.2,568.608 394.1,568.228 C394.496,568.148 395.292,568.068 396.428,568.068 C403.536,568.068 430.964,570.3 432.128,570.396 C434.168,570.564 435.88,572.004 436.388,573.988 C440.16,588.72 436.984,591.096 435.456,592.24 C433.976,593.352 432.064,593.692 427.272,593.692 z" fill-opacity="0" stroke="#1A1919" stroke-width="6" stroke-linecap="round" stroke-linejoin="round"/>
    <path d="M491.248,316.132 C466.716,319.332 384.584,317.2 357.916,309.736 C356.848,344.932 349.38,430.312 422.98,433.468 C497.648,436.668 491.248,337.464 491.248,316.132 z" fill-opacity="0" stroke="#1A1919" stroke-width="6.4" stroke-linecap="round" stroke-linejoin="round"/>
    <path d="M348.516,310.628 C346.208,327.216 324.164,337.856 299.28,334.396 C274.4,330.928 256.096,314.672 258.408,298.084 C260.716,281.496 282.76,270.856 307.644,274.32 C332.524,277.784 350.828,294.04 348.516,310.628" fill="#EB9174"/>
    <path d="M332.736,290.536 C332.736,294.72 328.728,298.108 323.78,298.108 C318.836,298.108 314.824,294.72 314.824,290.536 C314.824,286.348 318.836,282.956 323.78,282.956 C328.728,282.956 332.736,286.348 332.736,290.536" fill="#FFFFFE"/>
    <path d="M592.632,306.964 C592.588,323.716 572.184,337.24 547.068,337.176 C521.94,337.108 501.608,323.476 501.652,306.732 C501.7,289.98 522.1,276.456 547.224,276.524 C572.348,276.592 592.676,290.224 592.632,306.964" fill="#EB9174"/>
    <path d="M574.416,293.352 C574.984,297.5 571.468,301.404 566.572,302.072 C561.668,302.744 557.236,299.92 556.668,295.776 C556.1,291.628 559.62,287.728 564.52,287.06 C569.42,286.388 573.852,289.208 574.416,293.352" fill="#FFFFFE"/>
    <path d="M752.584,295.868 C752.584,286.264 747.86,264.52 620.316,229.736 C514.716,200.932 392.316,163.392 304.072,157.26 C232.492,152.288 113.96,177.136 97.96,203.8 C97.96,203.8 101.292,182.8 112.58,177.468 C150.98,159.332 257.648,133.736 346.18,148.668 C378.18,149.736 521.112,152.932 636.316,188.132 C648.048,194.536 746.184,258.536 754.716,280.932 C754.98,283.336 755.78,287.332 752.584,295.868" fill="#C1936C"/>
    <path d="M752.584,295.868 C752.584,286.264 747.86,264.52 620.316,229.736 C514.716,200.932 392.316,163.392 304.072,157.26 C232.492,152.288 113.96,177.136 97.96,203.8 C97.96,203.8 101.292,182.8 112.58,177.468 C150.98,159.332 257.648,133.736 346.18,148.668 C378.18,149.736 521.112,152.932 636.316,188.132 C648.048,194.536 746.184,258.536 754.716,280.932 C754.98,283.336 755.78,287.332 752.584,295.868 z M310.98,162.536 C305.648,156.132 286.448,163.6 274.716,212.668 M571.248,180.668 C580.848,180.668 589.38,196.668 596.848,240.404 M488.7,307.98 C488.7,307.98 493.504,315.676 493.504,318.56 M360.808,300.288 C360.808,300.288 362.712,304.756 357.916,309.736 M525.24,278.172 C531.968,274.324 546.392,271.44 556.968,275.288 M290.616,271.44 C304.08,270.48 313.692,270.48 326.192,276.248 M263.692,177.208 C257.92,178.168 225.228,188.748 206.96,201.248" fill-opacity="0" stroke="#1A1919" stroke-width="6.4" stroke-linecap="round" stroke-linejoin="round"/>
    <path d="M402.18,601.736 C396.848,588.932 358.124,559 322.924,571.8 C312.26,576.068 290.18,595.332 279.516,622 C268.848,648.668 273.648,684.668 280.048,692.132 L290.712,696.404 C290.712,696.404 305.116,700.132 309.38,700.132 C313.648,700.132 328.58,697.736 328.58,697.736 C328.58,697.736 343.512,696.668 350.98,688.132 C354.18,682.8 355.78,664.932 356.848,658.536 C373.916,655.332 387.316,641.948 400.584,631.868 C407.248,626.8 397.916,632.932 405.916,625.464 L409.112,615.868" fill="#CDB161"/>
    <path d="M402.18,601.736 C396.848,588.932 358.124,559 322.924,571.8 C312.26,576.068 290.18,595.332 279.516,622 C268.848,648.668 273.648,684.668 280.048,692.132 L290.712,696.404 C290.712,696.404 305.116,700.132 309.38,700.132 C313.648,700.132 328.58,697.736 328.58,697.736 C328.58,697.736 343.512,696.668 350.98,688.132 C354.18,682.8 355.78,664.932 356.848,658.536 C373.916,655.332 387.316,641.948 400.584,631.868 C407.248,626.8 397.916,632.932 405.916,625.464 L409.112,615.868" fill-opacity="0" stroke="#1A1919" stroke-width="6.4" stroke-linecap="round" stroke-linejoin="round"/>
    <path d="M376.048,565.736 C426.868,584.028 408.18,622.264 451.78,622.264 C454.98,622.264 435.78,627.6 429.38,627.6 C420.848,626.536 404.848,609.464 402.18,601.736 C396.848,588.932 358.124,559 322.924,571.8 C316.2,574.492 305.792,583.4 293.744,595.46 C293.916,578.536 316.86,565.068 335.516,560.404 C344.048,558.264 355.78,558.264 376.048,565.736 C402.644,575.532 454.98,622.264 451.78,622.264 C448.584,622.264 435.78,627.6 429.38,627.6" fill="#CDB161"/>
    <path d="M293.756,596.112 C301.38,582.8 316.016,574.892 322.716,572.132 C357.784,558.988 396.776,588.6 402.24,601.348 C404.984,609.056 421.148,625.964 429.692,626.944 C429.692,626.944 442.18,630.8 456.048,628.668" fill-opacity="0" stroke="#1A1919" stroke-width="6.4" stroke-linecap="round" stroke-linejoin="round"/>
    <path d="M356.848,658.536 C356.848,658.536 352.58,660.132 349.38,660.932" fill="#CDB161"/>
    <path d="M356.848,658.536 C356.848,658.536 352.58,660.132 349.38,660.932 M368.58,559.332 C376.048,560.404 393.112,570 434.716,600.932" fill-opacity="0" stroke="#1A1919" stroke-width="6.4" stroke-linecap="round" stroke-linejoin="round"/>
    <path d="M345.364,252.908 C345.364,260.712 339.036,267.036 331.236,267.036 C323.432,267.036 317.104,260.712 317.104,252.908 C317.104,245.1 323.432,238.776 331.236,238.776 C339.036,238.776 345.364,245.1 345.364,252.908" fill="#1A1919"/>
    <path d="M345.364,252.908 C345.364,260.712 339.036,267.036 331.236,267.036 C323.432,267.036 317.104,260.712 317.104,252.908 C317.104,245.1 323.432,238.776 331.236,238.776 C339.036,238.776 345.364,245.1 345.364,252.908 z" fill-opacity="0" stroke="#1A1919" stroke-width="6.4" stroke-linecap="round" stroke-linejoin="round"/>
    <path d="M535.916,252.908 C535.916,260.712 529.588,267.036 521.788,267.036 C513.988,267.036 507.66,260.712 507.66,252.908 C507.66,245.1 513.988,238.776 521.788,238.776 C529.588,238.776 535.916,245.1 535.916,252.908" fill="#1A1919"/>
    <path d="M535.916,252.908 C535.916,260.712 529.588,267.036 521.788,267.036 C513.988,267.036 507.66,260.712 507.66,252.908 C507.66,245.1 513.988,238.776 521.788,238.776 C529.588,238.776 535.916,245.1 535.916,252.908 z" fill-opacity="0" stroke="#1A1919" stroke-width="6.4" stroke-linecap="round" stroke-linejoin="round"/>
    <path d="M301.38,435.332 L294.18,448.932 L317.38,445.736 L301.38,435.332" fill="#1A1919"/>
    <path d="M372.848,470.268 L369.648,476.668 C369.648,476.668 400.584,484.136 408.048,483.068 L372.848,470.268" fill="#1A1919"/>
    <path d="M299.248,562.536 L297.116,567.868 L310.98,570 L316.316,566.8 L299.248,562.536" fill="#1A1919"/>
    <path d="M210.18,199.868 C210.18,199.868 213.38,218.004 214.448,222.268 C215.516,226.536 218.716,194.536 218.716,194.536 L210.18,199.868" fill="#1A1919"/>
    <path d="M350.708,457.576 L345.056,461.812 C345.056,461.812 395.94,468.88 405.836,466.052 L350.708,457.576" fill="#1A1919"/>
    <path d="M299.78,439.332 C299.78,439.332 368.58,461.736 379.78,463.332 C390.98,464.932 381.38,466.536 381.38,466.536 L294.18,448.932 L299.78,439.332" fill="#1A1919"/>
    <path d="M157.704,386.108 L151.872,355.652 L151.228,356.296 L150.488,356.104 L151.228,334.268 L142.588,332.108 L127.248,326.492 C120.872,324.776 115.28,327.24 112.044,331.268 L96.144,343.988 L104.096,366.708 L102.84,367.532 L111.808,397.088 L132.548,383.532 L157.704,386.108 z" fill-opacity="0" stroke="#1A1919" stroke-width="9.6" stroke-linecap="round" stroke-linejoin="round"/>
    <path d="M195.608,339.376 C193.288,339.372 190.84,339.464 188.26,339.656 C190.728,339.372 193.18,339.272 195.608,339.376 z M240.004,368.612 C238.364,364.528 236.348,359.684 233.02,355.124 C234.104,356.248 234.932,357.304 235.464,358.248 L224.448,332.972 C216.672,318.716 182.112,315.692 144.312,334.7 L150.348,353.708 C150.348,353.708 150.4,353.596 150.532,353.4 L161.296,391.776 L240.004,368.612" fill="#636463"/>
    <path d="M195.608,339.376 C193.288,339.372 190.84,339.464 188.26,339.656 C190.728,339.372 193.18,339.272 195.608,339.376 z M240.004,368.612 C238.364,364.528 236.348,359.684 233.02,355.124 C234.104,356.248 234.932,357.304 235.464,358.248 L224.448,332.972 C216.672,318.716 182.112,315.692 144.312,334.7 L150.348,353.708 C150.348,353.708 150.4,353.596 150.532,353.4 L161.296,391.776 L240.004,368.612 z" fill-opacity="0" stroke="#1A1919" stroke-width="9.6" stroke-linecap="round" stroke-linejoin="round"/>
    <path d="M110.616,377.468 L96.792,343.34 C63.96,344.204 33.72,357.164 27.672,374.444 C26.812,380.492 29.404,396.044 29.404,396.044 C30.56,391.988 33.032,388.324 36.344,385.028 C33.468,388.08 31.328,391.452 30.264,395.18 C28.536,398.636 33.72,410.732 37.176,415.052 L108.024,397.768 L108.736,396.708 L109.756,399.5 C111.48,397.768 110.616,377.468 110.616,377.468" fill="#636463"/>
    <path d="M110.616,377.468 L96.792,343.34 C63.96,344.204 33.72,357.164 27.672,374.444 C26.812,380.492 29.404,396.044 29.404,396.044 C30.56,391.988 33.032,388.324 36.344,385.028 C33.468,388.08 31.328,391.452 30.264,395.18 C28.536,398.636 33.72,410.732 37.176,415.052 L108.024,397.768 L108.736,396.708 L109.756,399.5 C111.48,397.768 110.616,377.468 110.616,377.468 z" fill-opacity="0" stroke="#1A1919" stroke-width="9.6" stroke-linecap="round" stroke-linejoin="round"/>
    <path d="M53.592,359.752 L52.732,339.02 C53.592,326.06 80.376,318.284 89.016,332.972 L93.336,351.98 L53.592,359.752" fill="#4D4E4C"/>
    <path d="M53.592,359.752 L52.732,339.02 C53.592,326.06 80.376,318.284 89.016,332.972 L93.336,351.98 L53.592,359.752 z" fill-opacity="0" stroke="#1A1919" stroke-width="6.4" stroke-linecap="round" stroke-linejoin="round"/>
    <path d="M151.228,334.268 L142.588,332.108 L127.248,326.492 C120.872,324.776 115.28,327.24 112.044,331.268 L96.144,343.988 L103.272,367.316 L130.492,355.652 C130.928,355.208 131.328,354.752 131.7,354.292 L150.36,359.752 L151.228,334.268" fill="#4D4E4C"/>
    <path d="M151.228,334.268 L142.588,332.108 L127.248,326.492 C120.872,324.776 115.28,327.24 112.044,331.268 L96.144,343.988 L103.272,367.316 L130.492,355.652 C130.928,355.208 131.328,354.752 131.7,354.292 L150.36,359.752 L151.228,334.268 z" fill-opacity="0" stroke="#1A1919" stroke-width="3.2" stroke-linecap="round" stroke-linejoin="round"/>
    <path d="M96.792,343.34 C63.96,344.204 33.72,357.164 27.672,374.444 C26.812,380.492 29.404,396.044 29.404,396.044 C36.316,371.852 89.016,361.484 97.66,361.484 L96.792,343.34" fill="#4D4E4C"/>
    <path d="M96.792,343.34 C63.96,344.204 33.72,357.164 27.672,374.444 C26.812,380.492 29.404,396.044 29.404,396.044 C36.316,371.852 89.016,361.484 97.66,361.484 L96.792,343.34 z" fill-opacity="0" stroke="#1A1919" stroke-width="3.2" stroke-linecap="round" stroke-linejoin="round"/>
    <path d="M146.908,337.292 C146.04,334.7 142.588,320.012 142.588,320.012 C140.856,306.188 168.508,296.684 178.008,311.372 L183.192,328.652 L146.908,337.292" fill="#4D4E4C"/>
    <path d="M146.908,337.292 C146.04,334.7 142.588,320.012 142.588,320.012 C140.856,306.188 168.508,296.684 178.008,311.372 L183.192,328.652 L146.908,337.292 z" fill-opacity="0" stroke="#1A1919" stroke-width="6.4" stroke-linecap="round" stroke-linejoin="round"/>
    <path d="M19.9,454.796 C19.9,469.484 49.132,502.236 108.316,513.468 C121.66,512.144 131.716,494.88 136.048,485.736 C145.648,465.468 139.248,449.468 139.248,449.468 L42.36,432.764 L19.9,454.796" fill="#F4BB9D"/>
    <path d="M19.9,454.796 C19.9,469.484 49.132,502.236 108.316,513.468 C121.66,512.144 131.716,494.88 136.048,485.736 C145.648,465.468 139.248,449.468 139.248,449.468 L42.36,432.764 L19.9,454.796 z" fill-opacity="0" stroke="#1A1919" stroke-width="6.4" stroke-linecap="round" stroke-linejoin="round"/>
    <path d="M108.024,397.768 L109.756,395.18 L97.66,361.484 C89.016,361.484 37.18,370.988 30.264,395.18 C28.536,398.636 33.72,410.732 37.176,415.052 L108.024,397.768" fill="#4D4E4C"/>
    <path d="M108.024,397.768 L109.756,395.18 L97.66,361.484 C89.016,361.484 37.18,370.988 30.264,395.18 C28.536,398.636 33.72,410.732 37.176,415.052 L108.024,397.768 z" fill-opacity="0" stroke="#1A1919" stroke-width="3.2" stroke-linecap="round" stroke-linejoin="round"/>
    <path d="M109.756,399.5 C111.48,397.768 106.512,376.388 106.512,376.388 L96.792,343.34 L95.928,361.484 L109.756,399.5" fill="#4D4E4C"/>
    <path d="M109.756,399.5 C111.48,397.768 106.512,376.388 106.512,376.388 L96.792,343.34 L95.928,361.484 L109.756,399.5 z M119.4,461.76 C119.584,482.344 102.584,499.184 81.428,499.372 C60.276,499.56 42.98,483.028 42.796,462.44 C42.612,441.864 59.612,425.028 80.764,424.836 C101.92,424.648 119.216,441.18 119.4,461.76 z M249,426.34 C249.18,446.916 232.18,463.756 211.028,463.944 C189.876,464.132 172.58,447.6 172.396,427.02 C172.212,406.44 189.212,389.6 210.364,389.416 C231.516,389.224 248.816,405.752 249,426.34 z" fill-opacity="0" stroke="#1A1919" stroke-width="3.2" stroke-linecap="round" stroke-linejoin="round"/>
    <path d="M240.004,368.612 C234.956,356.028 226.392,336.212 186.528,339.78 C154.284,342.668 150.48,353.208 150.48,353.208 L161.296,391.776 L240.004,368.612" fill="#4D4E4C"/>
    <path d="M240.004,368.612 C234.956,356.028 226.392,336.212 186.528,339.78 C154.284,342.668 150.48,353.208 150.48,353.208 L161.296,391.776 L240.004,368.612 z" fill-opacity="0" stroke="#1A1919" stroke-width="3.2" stroke-linecap="round" stroke-linejoin="round"/>
    <path d="M150.348,353.708 C150.348,353.708 154.412,345.756 186.244,339.884 C216.672,334.268 231.284,350.848 235.464,358.248 L224.448,332.972 C216.672,318.716 182.112,315.692 144.312,334.7 L150.348,353.708" fill="#4D4E4C"/>
    <path d="M150.348,353.708 C150.348,353.708 154.412,345.756 186.244,339.884 C216.672,334.268 231.284,350.848 235.464,358.248 L224.448,332.972 C216.672,318.716 182.112,315.692 144.312,334.7 L150.348,353.708 z" fill-opacity="0" stroke="#1A1919" stroke-width="3.2" stroke-linecap="round" stroke-linejoin="round"/>
    <path d="M36.312,404.684 C36.312,404.684 31.176,449.7 31.176,452.288 C31.176,454.884 123.328,434.996 123.328,434.996 L107.772,391.796 C95.064,369.26 43.228,372.716 36.312,404.684" fill="#4D4E4C"/>
    <path d="M36.312,404.684 C36.312,404.684 31.176,449.7 31.176,452.288 C31.176,454.884 123.328,434.996 123.328,434.996 L107.772,391.796 C95.064,369.26 43.228,372.716 36.312,404.684 z" fill-opacity="0" stroke="#1A1919" stroke-width="6.4" stroke-linecap="round" stroke-linejoin="round"/>
    <path d="M224.796,358.52 C224.796,358.52 253.24,399.46 254.496,401.728 C255.752,403.996 161.332,429.348 161.332,429.348 L157.636,379.92 C156.236,356.004 205.008,336.212 224.796,358.52" fill="#4D4E4C"/>
    <path d="M224.796,358.52 C224.796,358.52 253.24,399.46 254.496,401.728 C255.752,403.996 161.332,429.348 161.332,429.348 L157.636,379.92 C156.236,356.004 205.008,336.212 224.796,358.52 z" fill-opacity="0" stroke="#1A1919" stroke-width="6.4" stroke-linecap="round" stroke-linejoin="round"/>
    <path d="M151.228,356.296 L131.892,351.26 C116.34,350.092 111.936,374.108 124.896,382.748 L157.704,386.108 L151.872,355.652 L151.228,356.296" fill="#4D4E4C"/>
    <path d="M151.228,356.296 L131.892,351.26 C116.34,350.092 111.936,374.108 124.896,382.748 L157.704,386.108 L151.872,355.652 L151.228,356.296 z" fill-opacity="0" stroke="#1A1919" stroke-width="3.2" stroke-linecap="round" stroke-linejoin="round"/>
    <path d="M102.84,367.532 L119.256,356.732 C130.12,346.728 147.768,363.212 136.54,380.924 L111.808,397.088 L102.84,367.532" fill="#4D4E4C"/>
    <path d="M102.84,367.532 L119.256,356.732 C130.12,346.728 147.768,363.212 136.54,380.924 L111.808,397.088 L102.84,367.532 z M135.776,367.976 C135.776,371.84 132.644,374.972 128.78,374.972 C124.916,374.972 121.784,371.84 121.784,367.976 C121.784,364.112 124.916,360.98 128.78,360.98 C132.644,360.98 135.776,364.112 135.776,367.976 z" fill-opacity="0" stroke="#1A1919" stroke-width="3.2" stroke-linecap="round" stroke-linejoin="round"/>
    <path d="M118.828,393.02 C114.936,393.888 103.708,404.252 117.096,416.348 L119.192,430.284 C119.192,430.284 124.008,461.708 125.304,462.14 C131.784,461.276 139.132,452.204 140.424,430.604 C140.856,428.012 143.448,417.212 142.588,415.484 C141.72,413.752 125.304,389.132 118.828,393.02" fill="#F4BB9D"/>
    <path d="M118.828,393.02 C114.936,393.888 103.708,404.252 117.096,416.348 L119.192,430.284 C119.192,430.284 124.008,461.708 125.304,462.14 C131.784,461.276 139.132,452.204 140.424,430.604 C140.856,428.012 143.448,417.212 142.588,415.484 C141.72,413.752 125.304,389.132 118.828,393.02 z M117.096,416.348 C117.96,417.644 120.556,420.668 123.58,421.532" fill-opacity="0" stroke="#1A1919" stroke-width="6.4" stroke-linecap="round" stroke-linejoin="round"/>
    <path d="M30.264,421.1 C37.608,418.076 38.172,425.204 35.148,429.088 C33.848,432.112 29.896,436.288 28.6,438.016 C28.536,442.204 25.624,448.132 27.9,455.568 L27.432,471.02 C24.408,469.288 15.144,464.732 15.58,451.772 C10.392,448.752 6.508,445.292 7.8,435.356 C4.776,434.064 4.344,424.56 5.208,419.804 C1.32,414.62 1.756,408.14 4.776,402.092 C7.8,396.044 16.876,382.652 25.512,380.924 C34.152,379.196 33.288,382.652 33.288,386.108 C33.288,389.568 29.404,394.748 29.404,394.748 C32.424,393.452 36.744,395.612 36.744,399.5 C36.744,403.392 30.264,407.708 30.264,407.708 C35.448,403.82 43.228,413.324 30.264,421.1" fill="#F4BB9D"/>
    <path d="M30.264,421.1 C37.608,418.076 38.172,425.204 35.148,429.088 C33.848,432.112 29.896,436.288 28.6,438.016 C28.536,442.204 25.624,448.132 27.9,455.568 L27.432,471.02 C24.408,469.288 15.144,464.732 15.58,451.772 C10.392,448.752 6.508,445.292 7.8,435.356 C4.776,434.064 4.344,424.56 5.208,419.804 C1.32,414.62 1.756,408.14 4.776,402.092 C7.8,396.044 16.876,382.652 25.512,380.924 C34.152,379.196 33.288,382.652 33.288,386.108 C33.288,389.568 29.404,394.748 29.404,394.748 C32.424,393.452 36.744,395.612 36.744,399.5 C36.744,403.392 30.264,407.708 30.264,407.708 C35.448,403.82 43.228,413.324 30.264,421.1 z" fill-opacity="0" stroke="#1A1919" stroke-width="6.4" stroke-linecap="round" stroke-linejoin="round"/>
    <path d="M131.768,462 C131.768,488.916 108.936,510.732 80.768,510.732 C52.6,510.732 29.768,488.916 29.768,462 C29.768,435.084 52.6,413.268 80.768,413.268 C108.936,413.268 131.768,435.084 131.768,462" fill="#4D4E4C"/>
    <path d="M131.768,462 C131.768,488.916 108.936,510.732 80.768,510.732 C52.6,510.732 29.768,488.916 29.768,462 C29.768,435.084 52.6,413.268 80.768,413.268 C108.936,413.268 131.768,435.084 131.768,462 z" fill-opacity="0" stroke="#1A1919" stroke-width="6.4" stroke-linecap="round" stroke-linejoin="round"/>
    <path d="M119.4,461.76 C119.584,482.344 102.584,499.184 81.428,499.372 C60.276,499.56 42.98,483.028 42.796,462.44 C42.612,441.864 59.612,425.028 80.764,424.836 C101.92,424.648 119.216,441.18 119.4,461.76" fill="#343534"/>
    <path d="M112.344,459.98 C109.756,476.396 96.792,490.22 77.784,487.628 C59.864,485.184 46.84,475.852 46.68,458.252 C46.528,440.656 60.896,426.696 78.98,426.536 C97.068,426.372 115.088,442.596 112.344,459.98" fill="#757496"/>
    <path d="M71.74,471.216 C66.556,464.3 67.42,456.524 70.008,447.888 C65.688,445.292 62.236,444.424 58.78,447.888 C54.46,453.068 54.46,467.752 61.368,476.396 C70.872,482.44 73.464,473.804 71.74,471.216" fill="#FFFFFE"/>
    <path d="M65.688,438.38 C70.12,432.472 77.784,429.74 82.968,431.468 C88.156,433.196 88.156,437.516 82.968,439.248 C77.784,440.972 76.92,441.84 73.464,442.7 C70.008,443.564 63.096,441.836 65.688,438.38" fill="#FFFFFE"/>
    <path d="M261.368,426.576 C261.368,453.488 238.536,475.304 210.368,475.304 C182.2,475.304 159.368,453.488 159.368,426.576 C159.368,399.66 182.2,377.844 210.368,377.844 C238.536,377.844 261.368,399.66 261.368,426.576" fill="#4D4E4C"/>
    <path d="M261.368,426.576 C261.368,453.488 238.536,475.304 210.368,475.304 C182.2,475.304 159.368,453.488 159.368,426.576 C159.368,399.66 182.2,377.844 210.368,377.844 C238.536,377.844 261.368,399.66 261.368,426.576 z" fill-opacity="0" stroke="#1A1919" stroke-width="6.4" stroke-linecap="round" stroke-linejoin="round"/>
    <path d="M249,426.34 C249.18,446.916 232.18,463.756 211.028,463.944 C189.876,464.132 172.58,447.6 172.396,427.02 C172.212,406.44 189.212,389.6 210.364,389.416 C231.516,389.224 248.816,405.752 249,426.34" fill="#343534"/>
    <path d="M242.812,425.42 C240.22,445.292 226.336,452.044 208.248,452.204 C190.164,452.364 177.3,440.424 177.144,422.828 C176.988,405.232 192.096,391.496 210.18,391.332 C228.268,391.176 245.084,407.968 242.812,425.42" fill="#757496"/>
    <path d="M187.552,415.344 C185.032,416.4 181.768,428.42 186.804,435.496 C191.836,442.576 199.308,449.816 203.296,445.184 C207.28,440.56 208.744,436.98 203.468,433.564 C198.188,430.144 193.24,421.852 192.264,418.108 C191.288,414.372 187.552,415.344 187.552,415.344" fill="#FFFFFE"/>
    <path d="M195.976,412.964 C199.556,414.156 204.872,406.412 208.148,404.536 C211.424,402.66 208.616,397.98 204.872,398.448 C201.124,398.916 190.828,401.728 191.292,407.344 C191.76,412.964 194.572,412.496 195.976,412.964" fill="#FFFFFE"/>
    <path d="M648.612,240.772 L647.584,252.116 L716.676,265.52 L689.864,252.116 L648.612,240.772" fill="#1A1919"/>
    <path d="M217.452,195.46 L177.236,209.896 L218.48,206.8 L217.452,195.46" fill="#1A1919"/>
  </g>
</svg>
