<?xml version="1.0" encoding="UTF-8" standalone="no"?>
<svg
   xmlns:dc="http://purl.org/dc/elements/1.1/"
   xmlns:cc="http://creativecommons.org/ns#"
   xmlns:rdf="http://www.w3.org/1999/02/22-rdf-syntax-ns#"
   xmlns:svg="http://www.w3.org/2000/svg"
   xmlns="http://www.w3.org/2000/svg"
   id="svg8"
   version="1.1"
   viewBox="0 0 210 297"
   height="297mm"
   width="210mm">
  <defs
     id="defs2" />
  <metadata
     id="metadata5">
    <rdf:RDF>
      <cc:Work
         rdf:about="">
        <dc:format>image/svg+xml</dc:format>
        <dc:type
           rdf:resource="http://purl.org/dc/dcmitype/StillImage" />
        <dc:title></dc:title>
      </cc:Work>
    </rdf:RDF>
  </metadata>
  <g
     id="layer2">
    <g
       transform="translate(7.4212703,0.63486794)"
       id="g4546">
      <path
         style="color:#000000;font-style:normal;font-variant:normal;font-weight:normal;font-stretch:normal;font-size:medium;line-height:normal;font-family:sans-serif;font-variant-ligatures:normal;font-variant-position:normal;font-variant-caps:normal;font-variant-numeric:normal;font-variant-alternates:normal;font-feature-settings:normal;text-indent:0;text-align:start;text-decoration:none;text-decoration-line:none;text-decoration-style:solid;text-decoration-color:#000000;letter-spacing:normal;word-spacing:normal;text-transform:none;writing-mode:lr-tb;direction:ltr;text-orientation:mixed;dominant-baseline:auto;baseline-shift:baseline;text-anchor:start;white-space:normal;shape-padding:0;clip-rule:nonzero;display:inline;overflow:visible;visibility:visible;opacity:1;isolation:auto;mix-blend-mode:normal;color-interpolation:sRGB;color-interpolation-filters:linearRGB;solid-color:#000000;solid-opacity:1;vector-effect:none;fill:#808080;fill-opacity:1;fill-rule:nonzero;stroke:none;stroke-width:10.55305767;stroke-linecap:round;stroke-linejoin:miter;stroke-miterlimit:4;stroke-dasharray:none;stroke-dashoffset:0;stroke-opacity:1;color-rendering:auto;image-rendering:auto;shape-rendering:auto;text-rendering:auto;enable-background:accumulate"
         d="M 89.176599,22.135772 C 21.494653,22.131849 13.561875,94.829155 26.404573,114.76982 37.388776,131.82483 10.502558,33.793682 94.201695,32.976203 c 36.887695,-0.360278 68.485745,32.352548 69.153895,68.521087 0.57304,31.02016 -21.88168,62.23587 -41.39344,84.15003 -11.16921,12.54443 -19.66821,27.9085 -19.58819,45.00099 0.0781,16.68293 -11.040411,30.82302 -29.044124,31.49648 -19.217158,0.71886 -32.998545,-17.63849 -29.069439,-33.54443 12.103395,-48.99736 -33.137181,13.02059 8.514509,39.62961 19.091208,12.19634 52.173044,2.97255 57.357664,-21.33921 4.06046,-19.04029 5.29349,-39.15526 20.15834,-54.23522 24.14403,-24.49346 46.99103,-63.40021 43.16898,-99.43584 -4.29026,-40.450182 -36.3569,-71.081141 -84.283291,-71.083928 z"
         id="path4497-8" />
      <path
         style="color:#000000;font-style:normal;font-variant:normal;font-weight:normal;font-stretch:normal;font-size:medium;line-height:normal;font-family:sans-serif;font-variant-ligatures:normal;font-variant-position:normal;font-variant-caps:normal;font-variant-numeric:normal;font-variant-alternates:normal;font-feature-settings:normal;text-indent:0;text-align:start;text-decoration:none;text-decoration-line:none;text-decoration-style:solid;text-decoration-color:#000000;letter-spacing:normal;word-spacing:normal;text-transform:none;writing-mode:lr-tb;direction:ltr;text-orientation:mixed;dominant-baseline:auto;baseline-shift:baseline;text-anchor:start;white-space:normal;shape-padding:0;clip-rule:nonzero;display:inline;overflow:visible;visibility:visible;opacity:1;isolation:auto;mix-blend-mode:normal;color-interpolation:sRGB;color-interpolation-filters:linearRGB;solid-color:#000000;solid-opacity:1;vector-effect:none;fill:#808080;fill-opacity:1;fill-rule:nonzero;stroke:none;stroke-width:10.55305767;stroke-linecap:round;stroke-linejoin:miter;stroke-miterlimit:4;stroke-dasharray:none;stroke-dashoffset:0;stroke-opacity:1;color-rendering:auto;image-rendering:auto;shape-rendering:auto;text-rendering:auto;enable-background:accumulate"
         d="M 78.590417,51.117572 C 57.15351,57.572554 29.650586,92.55185 49.011238,135.40859 c 3.562089,7.88505 8.581085,-5.85942 7.271254,-11.69836 -2.42535,-10.81168 54.660988,9.57098 18.237715,39.92165 -21.35461,17.79431 -12.362741,46.8192 -9.876303,34.37928 1.566992,-7.83982 4.691272,-15.69268 11.301638,-20.7926 36.554308,-28.20178 21.02366,-63.81825 -6.973211,-64.85121 -24.00655,-0.88574 -18.684274,-27.038504 -0.870019,-25.411305 8.876165,0.810785 17.791849,6.012434 20.319952,14.661525 1.502726,5.14112 13.945686,18.70725 12.170126,8.86407 C 97.684736,94.362478 82.831796,80.144883 71.609291,77.06105 c -7.911421,-2.17399 5.820657,-9.691801 9.86823,-11.407412 14.020153,-5.942611 32.667149,-2.457279 41.358369,10.852406 8.64643,13.241102 12.05944,30.216666 8.46222,45.384226 -9.34508,39.40329 -38.686176,49.39391 -37.425489,59.3666 2.208325,17.46901 4.299963,0.41776 21.733369,-14.70601 13.57686,-11.77817 21.87431,-30.53064 24.46992,-38.34099 C 157.2606,76.500334 116.85215,39.596381 78.590417,51.117572 Z"
         id="path4499-4" />
    </g>
  </g>
</svg>
